# xmcd CD database file
#
# Track frame offsets:
#	150
#	14866
#	27684
#	41270
#	53681
#	69125
#	86428
#	105346
#	123975
#	139135
#
# Disc length: 2016 seconds
#
# Revision: 0
# Processed by: cddbd v1.5.1PL0 Copyright (c) Steve Scherf et al.
# Submitted via: CDex 1.51
#
DISCID=7d07de0a
DTITLE=Ryta De Cassia - Bicho Doméstico
DYEAR=2002
DGENRE=Jazz
TTITLE0=Deus Há De Ser
TTITLE1=Todo Dia
TTITLE2=Canção Para Oxum
TTITLE3=Minha Cara
TTITLE4=Ciranda do Mundo
TTITLE5=Coração
TTITLE6=Novidade
TTITLE7=Osso
TTITLE8=Sinais de Humanidade
TTITLE9=Bicho Doméstico
EXTD=YEAR: 2002
EXTT0=
EXTT1=
EXTT2=
EXTT3=
EXTT4=
EXTT5=
EXTT6=
EXTT7=
EXTT8=
EXTT9=
PLAYORDER=
